<svg width="374" height="75" viewBox="0 0 374 75" fill="none" xmlns="http://www.w3.org/2000/svg">
<path d="M21.184 16.12C25.1947 16.12 28.608 16.7173 31.424 17.912C34.2827 19.1067 36.928 21.048 39.36 23.736L33.152 30.904C31.744 28.7707 30.08 27.2133 28.16 26.232C26.2827 25.208 24.0213 24.696 21.376 24.696C19.1573 24.696 17.4507 25.08 16.256 25.848C15.0613 26.616 14.464 27.64 14.464 28.92C14.464 29.9867 15.0827 30.8613 16.32 31.544C17.6 32.184 19.7547 32.7813 22.784 33.336C28.6293 34.4027 32.7893 35.96 35.264 38.008C37.7813 40.056 39.04 42.936 39.04 46.648C39.04 49.336 38.272 51.6613 36.736 53.624C35.2 55.5867 33.0667 57.08 30.336 58.104C27.648 59.128 24.5973 59.64 21.184 59.64C16.4053 59.64 12.5227 59.064 9.536 57.912C6.54933 56.7173 3.968 54.904 1.792 52.472L7.424 44.792C9.088 47.096 10.9653 48.7173 13.056 49.656C15.1467 50.5947 17.664 51.064 20.608 51.064C22.9547 51.064 24.704 50.744 25.856 50.104C27.0507 49.4213 27.648 48.4613 27.648 47.224C27.648 46.2427 27.008 45.4533 25.728 44.856C24.4907 44.216 22.4 43.6187 19.456 43.064C15.8293 42.3387 12.8213 41.4853 10.432 40.504C8.08533 39.48 6.25067 38.1147 4.928 36.408C3.648 34.7013 3.008 32.5253 3.008 29.88C3.008 27.2347 3.712 24.8667 5.12 22.776C6.57067 20.6853 8.66133 19.064 11.392 17.912C14.1653 16.7173 17.4293 16.12 21.184 16.12ZM67.3635 16.12C71.6302 16.12 75.2995 16.9947 78.3715 18.744C81.4862 20.4507 83.8755 22.9467 85.5395 26.232C87.2035 29.4747 88.0355 33.3573 88.0355 37.88C88.0355 42.4027 87.2035 46.3067 85.5395 49.592C83.8755 52.8347 81.4862 55.3307 78.3715 57.08C75.2995 58.7867 71.6302 59.64 67.3635 59.64C63.0968 59.64 59.4062 58.7867 56.2915 57.08C53.1768 55.3307 50.7875 52.8347 49.1235 49.592C47.4595 46.3067 46.6275 42.4027 46.6275 37.88C46.6275 33.3573 47.4595 29.4747 49.1235 26.232C50.7875 22.9467 53.1768 20.4507 56.2915 18.744C59.4062 16.9947 63.0968 16.12 67.3635 16.12ZM67.3635 24.76C64.2915 24.76 61.9448 25.8693 60.3235 28.088C58.7022 30.3067 57.8915 33.5707 57.8915 37.88C57.8915 42.1893 58.7022 45.4533 60.3235 47.672C61.9448 49.8907 64.2915 51 67.3635 51C70.4355 51 72.7608 49.8907 74.3395 47.672C75.9608 45.4533 76.7715 42.1893 76.7715 37.88C76.7715 33.5707 75.9608 30.3067 74.3395 28.088C72.7608 25.8693 70.4355 24.76 67.3635 24.76ZM135.607 46.904C134.412 51.1707 132.194 54.3707 128.951 56.504C125.708 58.5947 121.762 59.64 117.111 59.64C112.844 59.64 109.154 58.7867 106.039 57.08C102.924 55.3307 100.535 52.8347 98.871 49.592C97.207 46.3067 96.375 42.4027 96.375 37.88C96.375 33.4 97.207 29.5173 98.871 26.232C100.535 22.9467 102.924 20.4507 106.039 18.744C109.154 16.9947 112.823 16.12 117.047 16.12C121.655 16.12 125.559 17.1013 128.759 19.064C131.959 20.984 134.071 23.8853 135.095 27.768L125.431 31.672C124.834 29.112 123.916 27.32 122.679 26.296C121.442 25.272 119.692 24.76 117.431 24.76C114.316 24.76 111.906 25.8907 110.199 28.152C108.492 30.3707 107.639 33.6133 107.639 37.88C107.639 42.1467 108.45 45.4107 110.071 47.672C111.735 49.8907 114.124 51 117.239 51C119.586 51 121.442 50.4453 122.807 49.336C124.172 48.2267 125.111 46.4773 125.623 44.088L135.607 46.904ZM155.297 59H144.289V16.76H155.297V59Z" fill="#777777"/>
<path d="M193 13C178.648 13 167 24.2 167 38C167 51.8 178.648 63 193 63C207.352 63 219 51.8 219 38C219 24.2 207.352 13 193 13ZM190.4 57.825C180.13 56.6 172.2 48.2 172.2 38C172.2 36.45 172.408 34.975 172.746 33.525L185.2 45.5V48C185.2 50.75 187.54 53 190.4 53V57.825ZM208.34 51.475C207.664 49.45 205.74 48 203.4 48H200.8V40.5C200.8 39.125 199.63 38 198.2 38H182.6V33H187.8C189.23 33 190.4 31.875 190.4 30.5V25.5H195.6C198.46 25.5 200.8 23.25 200.8 20.5V19.475C208.418 22.45 213.8 29.625 213.8 38C213.8 43.2 211.72 47.925 208.34 51.475Z" fill="#F5586B"/>
<path d="M262.864 50.488V59H230.672V16.76H241.68V50.488H262.864ZM282.74 59H271.732V16.76H282.74V59ZM328.587 50.68V59H292.363V51.064L315.979 25.08H292.811V16.76H327.819V24.696L304.331 50.68H328.587ZM371.518 50.488V59H337.79V16.76H370.686V25.272H348.798V33.848H366.206V41.848H348.798V50.488H371.518Z" fill="#F5586B"/>
</svg>
